<?xml version="1.0"?>
<svg xmlns="http://www.w3.org/2000/svg" xmlns:xlink="http://www.w3.org/1999/xlink" xmlns:svgjs="http://svgjs.com/svgjs" version="1.1" width="512" height="512" x="0" y="0" viewBox="0 0 512 512" style="enable-background:new 0 0 512 512" xml:space="preserve"><g><g xmlns="http://www.w3.org/2000/svg"><path d="m402.543 179.871-56.54-15.42v-14.451c0-33.203-18.075-62.26-44.899-77.859 1.48-23.485 21.047-42.141 44.899-42.141v-30c-36.735 0-67.364 26.555-73.754 61.473-10.6-1.94-21.635-1.987-32.491 0-6.391-34.918-37.02-61.473-73.755-61.473v30c23.852 0 43.419 18.656 44.899 42.141-26.824 15.599-44.899 44.656-44.899 77.859v14.451l-56.541 15.42c-78.8 21.492-105.052 120.078-47.24 177.888 27.598 27.599 66.741 37.559 103.781 27.235v5.006c0 44.516 32.489 81.581 75 88.743v33.257h30v-33.257c42.511-7.163 75-44.228 75-88.743v-5.007c37.129 10.349 76.227.321 103.78-27.233 57.756-57.756 31.636-156.377-47.24-177.889zm-206.54-29.871c0-33.084 26.916-60 60-60s60 26.916 60 60v6.269l-16.862-4.599c-14.938-4.073-31.351-.329-43.138 10.994-11.815-11.35-28.238-15.057-43.138-10.994l-16.862 4.599zm120 221.453v3.547h-120v-3.547c16.36-10.722 28.643-24.997 36.737-41.453h46.526c8.463 17.215 21.332 31.445 36.737 41.453zm-60-119.208 13.024 47.755h-26.048zm-172.568 84.301c-41.471-41.472-22.716-112.286 33.921-127.732l103.403-28.201c11.403-3.112 21.665 7.404 18.609 18.609l-28.201 103.403c-15.44 56.62-86.247 75.407-127.732 33.921zm172.568 113.454c-27.906 0-51.424-19.151-58.102-45h116.203c-6.678 25.849-30.195 45-58.101 45zm172.567-113.454c-41.392 41.39-112.26 22.812-127.732-33.921l-28.201-103.404c-1.399-5.136.003-10.802 3.905-14.703.201-.134 3.981-4.44 10.719-4.44 3.793 0-.825-.588 107.388 28.736 56.582 15.432 75.434 86.219 33.921 127.732z" fill="#377dde" data-original="#000000" style=""/></g></g></svg>
