<?xml version="1.0"?>
<svg xmlns="http://www.w3.org/2000/svg" xmlns:xlink="http://www.w3.org/1999/xlink" xmlns:svgjs="http://svgjs.com/svgjs" version="1.1" width="512" height="512" x="0" y="0" viewBox="0 0 510.005 510.005" style="enable-background:new 0 0 512 512" xml:space="preserve"><g><g xmlns="http://www.w3.org/2000/svg"><path d="m183.204 176.694c-6.501 6.715-8.167 9.241-8.74 9.8 12.386-2.924 40.448-8.49 51.21-8.49 11.021 0 21.298 3.937 29.35 10.88 9.297-8.043 21.429-11.889 33.88-10.649 2.55.26 21.41 2.3 46.66 8.26-44.616-54.802-108.687-54.974-152.36-9.801z" fill="#ffffff" data-original="#000000" style=""/><path d="m338.004 146.123c15.359-37.609-3.187-79.647-43.41-97.74l11.04-27.85c3.05-7.7-.71-16.42-8.42-19.47-7.7-3.06-16.42.71-19.47 8.41l-12.32 31.08c-6.736-.711-13.67-.755-20.82 0l-12.32-31.08c-3.05-7.7-11.77-11.47-19.47-8.41-7.7 3.05-11.47 11.77-8.42 19.47l11.04 27.85c-40.203 18.085-58.777 60.111-43.41 97.74 49.261-42.652 116.298-43.016 165.98 0z" fill="#ffffff" data-original="#000000" style=""/><path d="m485.534 352.574c-3.89-36.91-33.79-78.641-64.52-98.96-36.65-25.311-93.95-41.341-135.14-45.53-9.51-.93-17.27 6.979-16.46 16.2 4.07 49.58 21.98 126.38 56.38 167.72 16.782 20.249 43.986 42.627 70.57 47.96 47.75 10.77 94.82-33.621 89.17-87.39z" fill="#ffffff" data-original="#000000" style=""/><path d="m239.674 217.654c-2.21-5.841-7.85-9.641-13.97-9.65 0 .07-39.53 3.13-85.85 20.06-20.93 7.73-47.03 20.36-63.52 35.25-21.29 18.11-44.21 49.96-50.4 80.04-5.19 25.221.33 47.94 13.85 66.311 26.47 35.95 70.94 45.689 119.18 6.97 9.351-7.501 19.221-17.368 25.28-24.63 33.26-39.87 49.9-110.09 55.68-160.98.69-6.022 1.3-9.321-.25-13.371z" fill="#ffffff" data-original="#000000" style=""/><path d="m288.944 392.003h-67.85c13.2-20.76 24.5-46.75 33.92-81.12 9.42 34.38 20.72 60.37 33.93 81.12z" fill="#ffffff" data-original="#000000" style=""/><path d="m333.644 441.234c-31.64 39.539-68.16 64.779-70.16 66.149-5.16 3.53-11.88 3.46-16.94 0-2-1.37-38.52-26.61-70.16-66.149 7.45-5.91 14.52-12.23 21.22-19.23h114.82c6.7 6.99 13.77 13.32 21.22 19.23z" fill="#ffffff" data-original="#000000" style=""/></g></g></svg>
